<?xml version="1.0" standalone="no"?>
<!DOCTYPE svg PUBLIC "-//W3C//DTD SVG 20010904//EN"
 "http://www.w3.org/TR/2001/REC-SVG-20010904/DTD/svg10.dtd">
<svg version="1.0" xmlns="http://www.w3.org/2000/svg"
 width="1024.000000pt" height="1024.000000pt" viewBox="0 0 1024.000000 1024.000000"
 preserveAspectRatio="xMidYMid meet">
<metadata>
Created by potrace 1.14, written by Peter Selinger 2001-2017
</metadata>
<g transform="translate(0.000000,1024.000000) scale(0.100000,-0.100000)"
fill="#000000" stroke="none">
<path d="M3401 7756 c-4 -6 -29 -56 -54 -111 -218 -471 -245 -924 -81 -1335
69 -173 193 -361 310 -470 l59 -55 0 -182 0 -183 -35 8 c-19 4 -91 7 -160 6
-99 -1 -137 -5 -182 -22 -138 -49 -259 -152 -320 -269 -113 -218 -70 -464 113
-640 90 -86 172 -127 338 -169 30 -8 36 -16 63 -84 16 -41 49 -104 73 -140 47
-70 160 -184 213 -216 21 -12 31 -24 28 -34 -3 -8 -21 -57 -41 -109 -74 -191
-108 -451 -88 -667 l12 -119 -62 -56 c-87 -79 -121 -148 -126 -256 -3 -70 0
-89 22 -135 26 -58 60 -96 116 -131 l36 -22 1485 0 1485 0 41 22 c102 54 139
121 139 248 0 79 -3 97 -29 150 -18 35 -55 85 -90 120 l-61 60 3 170 c2 94 -1
211 -7 260 -23 183 -82 358 -163 482 l-48 73 -4 122 c-7 187 -58 360 -155 529
l-38 65 80 90 c44 49 99 117 123 150 68 95 141 259 176 391 27 105 31 139 35
298 l5 180 83 85 c360 368 478 916 319 1475 -26 93 -147 399 -165 422 -11 13
-19 12 -189 -8 -261 -33 -484 -107 -663 -223 -91 -58 -223 -183 -289 -271
l-63 -85 -72 0 c-40 0 -73 3 -73 7 0 30 122 133 158 133 8 0 29 7 48 16 92 44
99 185 12 230 -51 26 -148 16 -233 -26 -78 -39 -180 -129 -222 -196 -15 -24
-30 -44 -33 -44 -3 0 -16 26 -30 58 -33 76 -126 169 -211 210 -212 103 -399
73 -401 -66 -1 -85 62 -142 157 -142 63 0 141 -35 178 -80 28 -33 77 -121 77
-139 0 -5 -28 0 -62 11 -48 16 -96 22 -203 24 l-140 3 -49 73 c-64 95 -202
232 -296 293 -159 104 -371 176 -615 209 -155 21 -224 25 -234 12z m354 -292
c204 -39 383 -134 530 -281 l76 -75 -81 -35 -80 -35 -62 22 c-96 33 -219 38
-304 12 -69 -21 -191 -103 -180 -121 3 -4 34 -11 68 -15 80 -8 162 -30 195
-51 l26 -17 -61 -54 c-145 -130 -275 -352 -284 -486 -3 -38 -3 -39 -20 -18
-23 28 -73 160 -106 278 -25 90 -27 111 -27 292 0 147 5 217 18 282 20 99 58
235 81 290 l16 37 57 -5 c32 -3 94 -12 138 -20z m2958 -41 c87 -229 119 -516
83 -743 -16 -103 -70 -277 -108 -354 -23 -46 -29 -40 -47 49 -28 134 -157 341
-269 431 -34 27 -61 53 -61 57 -2 17 113 59 197 74 48 8 89 17 92 20 8 8 -69
70 -113 91 -110 51 -294 56 -386 10 l-46 -23 -80 32 c-44 18 -84 35 -90 37 -9
4 36 52 115 121 46 40 162 116 227 149 129 64 268 100 444 115 11 1 24 -20 42
-66z m-1787 -536 c44 -15 109 -45 143 -67 l62 -40 37 29 c53 43 156 87 239
101 88 16 272 8 363 -15 159 -41 355 -159 467 -279 61 -66 123 -147 123 -161
0 -3 -30 19 -66 49 -122 101 -266 163 -401 175 -78 6 -107 0 -64 -14 42 -13
144 -88 221 -161 146 -140 222 -263 265 -431 36 -140 36 -138 -42 -87 -82 54
-174 84 -255 84 l-61 0 39 -26 c63 -42 202 -184 239 -244 101 -166 114 -374
34 -560 -29 -70 -84 -163 -108 -184 -18 -16 -19 -15 -14 47 8 92 -19 214 -72
322 -50 104 -107 174 -181 221 -65 42 -189 84 -245 84 l-42 0 41 -28 c97 -65
201 -222 238 -362 24 -89 24 -273 -1 -355 -43 -144 -120 -248 -223 -303 l-59
-31 19 56 c24 69 33 176 21 223 l-9 35 -16 -47 c-39 -112 -166 -251 -282 -308
-126 -62 -301 -64 -421 -5 -116 56 -194 138 -273 284 l-40 73 -7 -49 c-7 -55
7 -152 31 -209 8 -20 13 -38 10 -41 -12 -12 -142 82 -179 130 -75 98 -110 218
-109 372 0 115 17 208 50 285 32 74 120 188 178 233 l54 42 -30 3 c-40 4 -137
-21 -208 -55 -169 -80 -289 -310 -280 -541 3 -104 2 -104 -65 -4 -83 125 -119
234 -118 368 0 101 13 158 62 260 45 95 146 209 232 264 31 19 56 39 57 44 0
15 -142 -1 -205 -23 -32 -12 -83 -37 -113 -56 l-53 -36 7 38 c11 65 52 198 78
256 69 156 229 322 389 403 26 13 47 27 47 31 0 16 -160 -11 -246 -42 -109
-39 -159 -66 -240 -132 l-58 -47 34 49 c126 186 380 355 600 401 41 8 112 12
195 10 108 -2 144 -8 211 -29z m-1281 -1745 c97 -46 124 -69 203 -175 136
-181 372 -380 595 -501 247 -135 605 -198 881 -156 163 25 364 92 526 176 67
34 87 41 97 31 21 -21 92 -162 113 -223 32 -90 41 -149 41 -263 l0 -104 43
-66 c106 -159 156 -283 181 -446 19 -126 28 -275 17 -275 -22 0 -143 87 -204
148 l-68 66 0 -40 c0 -154 132 -375 294 -491 79 -57 126 -104 152 -155 13 -26
24 -50 24 -54 0 -4 -157 -4 -349 -2 l-350 5 -36 28 c-83 63 -160 204 -202 373
-29 112 -24 381 10 551 33 162 33 185 3 106 -36 -92 -92 -180 -157 -248 l-60
-62 7 55 c4 30 6 105 5 165 -2 192 -26 237 -52 100 -9 -46 -31 -115 -48 -152
-33 -69 -158 -263 -171 -263 -13 0 -106 104 -148 167 -50 74 -96 183 -113 271
-6 35 -16 59 -20 55 -28 -28 -33 -260 -9 -367 4 -20 5 -36 1 -36 -15 0 -111
108 -147 165 -21 33 -53 94 -71 135 -39 90 -40 81 -7 -75 31 -147 42 -369 25
-497 -22 -161 -92 -327 -175 -413 l-51 -52 -259 -6 c-290 -8 -456 -9 -456 -3
0 2 7 23 15 47 20 54 61 98 145 154 118 79 203 185 263 330 14 33 28 80 31
105 4 25 10 59 13 75 5 29 4 28 -53 -25 -65 -62 -141 -118 -193 -145 l-34 -17
7 125 c7 134 23 228 80 453 59 233 115 379 190 499 18 28 36 56 41 64 13 23
-41 8 -196 -54 -76 -30 -148 -55 -160 -55 -37 0 -83 44 -118 113 -40 80 -49
156 -28 247 9 36 15 66 13 67 -1 1 -22 -3 -46 -8 -25 -6 -97 -9 -160 -7 -100
4 -123 8 -177 32 -151 68 -232 229 -188 370 43 135 149 198 325 193 83 -2 104
-7 165 -35z m1505 -1877 c27 32 29 13 3 -40 -15 -30 -31 -55 -35 -55 -9 0 -55
100 -65 139 -5 24 -2 22 39 -17 39 -38 46 -41 58 -27z"/>
<path d="M4567 6197 c-20 -7 -52 -24 -71 -39 -94 -75 -86 -233 15 -303 35 -25
49 -28 112 -27 99 1 104 2 143 52 48 60 61 109 45 168 -30 112 -142 180 -244
149z m73 -87 c27 -27 25 -66 -5 -95 -27 -28 -37 -30 -66 -14 -59 31 -30 125
39 128 6 1 21 -8 32 -19z"/>
<path d="M5562 6198 c-50 -17 -106 -77 -121 -131 -32 -113 33 -214 153 -239
168 -36 296 145 203 284 -51 75 -154 113 -235 86z m82 -97 c24 -26 17 -70 -15
-94 -24 -17 -30 -18 -55 -6 -22 11 -30 22 -32 46 -6 60 64 97 102 54z"/>
<path d="M5034 5807 c-76 -23 -114 -68 -114 -135 0 -71 40 -126 112 -157 35
-14 37 -17 32 -48 -24 -128 -180 -188 -295 -113 -38 26 -43 27 -58 12 -14 -15
-14 -20 8 -62 14 -25 32 -49 42 -54 15 -8 17 -24 16 -117 -1 -97 1 -114 24
-163 107 -226 393 -277 568 -102 73 73 93 127 99 257 4 103 6 112 33 143 36
41 47 79 27 99 -13 13 -19 11 -53 -11 -120 -82 -286 -11 -285 121 0 23 9 33
51 56 53 29 88 84 89 137 0 40 -41 101 -82 122 -46 24 -159 32 -214 15z m33
-619 c-3 -7 -5 -2 -5 12 0 14 2 19 5 13 2 -7 2 -19 0 -25z m110 0 c-3 -7 -5
-2 -5 12 0 14 2 19 5 13 2 -7 2 -19 0 -25z m-81 -98 c22 -56 54 -50 54 10 0
29 16 33 75 15 48 -14 55 -19 55 -41 0 -33 -31 -77 -74 -103 -40 -25 -123 -28
-166 -6 -34 17 -67 68 -72 110 -3 29 -1 30 52 42 30 6 56 12 58 12 1 1 9 -17
18 -39z"/>
</g>
</svg>
